<svg width="23" height="23" viewBox="0 0 23 23" fill="none" xmlns="http://www.w3.org/2000/svg">
<path d="M22.12 11.56C22.12 5.7373 17.3827 1 11.56 1C5.73727 1 1 5.7373 1 11.56C1 17.3827 5.73731 22.12 11.56 22.12H20.8V20.8H16.661C19.9122 18.9979 22.12 15.5331 22.12 11.56Z" fill="#DBE3FF" stroke="#DBE3FF" stroke-width="0.66"/>
<path d="M2.32001 11.5601C2.32001 6.46508 6.46498 2.32007 11.56 2.32007C16.6551 2.32007 20.8 6.46504 20.8 11.5601C20.8 16.6551 16.655 20.8 11.56 20.8C6.46503 20.8 2.32001 16.6551 2.32001 11.5601Z" fill="#88A4E8" stroke="#F0EFFA" stroke-width="0.66"/>
<path fill-rule="evenodd" clip-rule="evenodd" d="M13.672 7.336C13.672 8.50061 12.7246 9.448 11.56 9.448C10.3953 9.448 9.448 8.50061 9.448 7.336C9.448 6.17139 10.3954 5.224 11.56 5.224C12.7246 5.224 13.672 6.17139 13.672 7.336ZM12.264 7.33602C12.264 6.94759 11.9484 6.63202 11.56 6.63202C11.1715 6.63202 10.856 6.94759 10.856 7.33602C10.856 7.72445 11.1716 8.04002 11.56 8.04002C11.9484 8.04002 12.264 7.72445 12.264 7.33602Z" fill="#DBE3FF"/>
<path fill-rule="evenodd" clip-rule="evenodd" d="M7.98913 7.86155C9.09597 8.22182 9.70373 9.41597 9.34486 10.5228C9.05475 11.4145 8.22423 11.9824 7.33397 11.9824C7.11811 11.9824 6.89945 11.9494 6.68359 11.8793C5.57602 11.519 4.96826 10.3256 5.32713 9.218C5.6874 8.11044 6.88228 7.50269 7.98845 7.86155H7.98913ZM7.33667 9.16644C7.03971 9.16644 6.76262 9.3555 6.66638 9.65318C6.54675 10.0216 6.74955 10.4204 7.11874 10.5401C7.4845 10.6597 7.886 10.4576 8.00562 10.0877C8.12524 9.71918 7.92245 9.32112 7.55393 9.20082C7.48175 9.17744 7.40885 9.16644 7.33667 9.16644Z" fill="#DBE3FF"/>
<path fill-rule="evenodd" clip-rule="evenodd" d="M7.31774 13.6963C8.00255 12.7557 9.32622 12.5453 10.2682 13.2288C11.2095 13.9136 11.4192 15.2372 10.7358 16.1793C10.4037 16.6365 9.91415 16.9363 9.3565 17.0243C9.24511 17.0422 9.13304 17.0511 9.02164 17.0511C8.57949 17.0511 8.14973 16.9123 7.78463 16.6468C7.32806 16.3154 7.02826 15.8258 6.94025 15.2682C6.85157 14.7112 6.98563 14.1529 7.31774 13.6963ZM9.13641 15.634C9.32207 15.6044 9.48569 15.504 9.59641 15.3521C9.82402 15.0378 9.75458 14.5964 9.44036 14.3681C9.31589 14.2781 9.17079 14.2341 9.02709 14.2341C8.80912 14.2341 8.59458 14.3351 8.45637 14.5242C8.34638 14.6762 8.30167 14.8625 8.33056 15.0482C8.36012 15.2338 8.46052 15.3975 8.61247 15.5082C8.76442 15.6182 8.95215 15.6594 9.13641 15.634Z" fill="#DBE3FF"/>
<path fill-rule="evenodd" clip-rule="evenodd" d="M12.3842 16.1794C11.7008 15.2375 11.9105 13.914 12.8518 13.2299C13.7938 12.5452 15.1188 12.7548 15.8023 13.6967C16.1344 14.1532 16.2684 14.7115 16.1797 15.2684C16.0917 15.826 15.7919 16.3155 15.3354 16.6469C14.9709 16.9123 14.5405 17.0511 14.0984 17.0511C13.987 17.0511 13.8749 17.0422 13.7635 17.0243C13.2059 16.9363 12.7163 16.6366 12.3849 16.1801L12.3842 16.1794ZM13.9836 15.6342C14.1692 15.661 14.3549 15.6191 14.5075 15.5084C14.6595 15.3977 14.7598 15.234 14.7894 15.0484C14.8183 14.8627 14.7736 14.6764 14.6636 14.5245C14.4353 14.2103 13.9918 14.1402 13.6797 14.3691C13.3661 14.5967 13.296 15.0381 13.5236 15.3523C13.6343 15.5042 13.7979 15.6046 13.9836 15.6342Z" fill="#DBE3FF"/>
<path fill-rule="evenodd" clip-rule="evenodd" d="M13.7751 10.5236C13.4163 9.41599 14.024 8.22183 15.1309 7.86156C16.2378 7.50269 17.4326 8.11045 17.7929 9.21729C18.1517 10.3255 17.544 11.519 16.4371 11.8793H16.4365C16.2206 11.9494 16.0019 11.9824 15.7861 11.9824C14.8958 11.9824 14.0653 11.4145 13.7751 10.5236ZM15.1144 10.0883C15.234 10.4575 15.6314 10.6603 16.0019 10.54C16.3704 10.4197 16.5732 10.0216 16.4536 9.65245C16.3574 9.35544 16.0803 9.16638 15.7833 9.16638C15.7111 9.16638 15.6382 9.17738 15.5661 9.20076C15.1975 9.32106 14.9947 9.71913 15.1144 10.0883Z" fill="#DBE3FF"/>
<path d="M12.456 10.6639C12.9509 11.1587 12.9509 11.9611 12.456 12.456C11.9612 12.9508 11.1588 12.9508 10.6639 12.456C10.1691 11.9611 10.1691 11.1587 10.6639 10.6639C11.1588 10.169 11.9612 10.169 12.456 10.6639Z" fill="#DBE3FF"/>
</svg>
